<mxfile host="app.diagrams.net" modified="2024-07-23T23:16:42.707Z" agent="Mozilla/5.0 (Windows NT 10.0; Win64; x64) AppleWebKit/537.36 (KHTML, like Gecko) Chrome/126.0.0.0 Safari/537.36" etag="1im3qGo3a99sBfFxlXBq" version="24.6.5" type="device">
  <diagram name="Page-1" id="GeyoTKeOEaAR744AkdCh">
    <mxGraphModel dx="949" dy="2083" grid="1" gridSize="10" guides="1" tooltips="1" connect="1" arrows="1" fold="1" page="1" pageScale="1" pageWidth="850" pageHeight="1100" math="0" shadow="0">
      <root>
        <mxCell id="0" />
        <mxCell id="1" parent="0" />
        <mxCell id="b8dmIowxwLuX0udhrp4a-1" value="" style="whiteSpace=wrap;html=1;aspect=fixed;" vertex="1" parent="1">
          <mxGeometry x="50" y="-1090" width="750" height="750" as="geometry" />
        </mxCell>
        <mxCell id="b8dmIowxwLuX0udhrp4a-3" style="edgeStyle=orthogonalEdgeStyle;rounded=0;orthogonalLoop=1;jettySize=auto;html=1;exitX=0;exitY=0;exitDx=0;exitDy=0;exitPerimeter=0;" edge="1" parent="1" source="b8dmIowxwLuX0udhrp4a-2" target="b8dmIowxwLuX0udhrp4a-1">
          <mxGeometry relative="1" as="geometry">
            <Array as="points">
              <mxPoint x="332" y="-930" />
              <mxPoint x="332" y="-930" />
            </Array>
          </mxGeometry>
        </mxCell>
        <mxCell id="b8dmIowxwLuX0udhrp4a-2" value="" style="verticalLabelPosition=bottom;verticalAlign=top;html=1;shape=mxgraph.basic.patternFillRect;fillStyle=diag;step=5;fillStrokeWidth=0.2;fillStrokeColor=#dddddd;" vertex="1" parent="1">
          <mxGeometry x="51" y="-980" width="750" height="330" as="geometry" />
        </mxCell>
        <mxCell id="b8dmIowxwLuX0udhrp4a-4" value="" style="rounded=0;whiteSpace=wrap;html=1;" vertex="1" parent="1">
          <mxGeometry x="62" y="-1080" width="728" height="70" as="geometry" />
        </mxCell>
        <mxCell id="b8dmIowxwLuX0udhrp4a-5" value="" style="whiteSpace=wrap;html=1;aspect=fixed;" vertex="1" parent="1">
          <mxGeometry x="62" y="-1085" width="80" height="80" as="geometry" />
        </mxCell>
        <mxCell id="b8dmIowxwLuX0udhrp4a-6" value="Home" style="text;html=1;align=center;verticalAlign=middle;whiteSpace=wrap;rounded=0;" vertex="1" parent="1">
          <mxGeometry x="182" y="-1060" width="100" height="30" as="geometry" />
        </mxCell>
        <mxCell id="b8dmIowxwLuX0udhrp4a-7" value="Trips" style="text;html=1;align=center;verticalAlign=middle;whiteSpace=wrap;rounded=0;" vertex="1" parent="1">
          <mxGeometry x="302" y="-1060" width="100" height="30" as="geometry" />
        </mxCell>
        <mxCell id="b8dmIowxwLuX0udhrp4a-8" value="About Us" style="text;html=1;align=center;verticalAlign=middle;whiteSpace=wrap;rounded=0;" vertex="1" parent="1">
          <mxGeometry x="422" y="-1060" width="100" height="30" as="geometry" />
        </mxCell>
        <mxCell id="b8dmIowxwLuX0udhrp4a-9" value="Contact Us" style="text;html=1;align=center;verticalAlign=middle;whiteSpace=wrap;rounded=0;" vertex="1" parent="1">
          <mxGeometry x="542" y="-1060" width="100" height="30" as="geometry" />
        </mxCell>
        <mxCell id="b8dmIowxwLuX0udhrp4a-12" value="" style="rounded=0;whiteSpace=wrap;html=1;" vertex="1" parent="1">
          <mxGeometry x="50" y="-900" width="750" height="60" as="geometry" />
        </mxCell>
        <mxCell id="b8dmIowxwLuX0udhrp4a-11" value="&lt;font style=&quot;font-size: 24px;&quot;&gt;Life White Water Rafting&lt;/font&gt;" style="text;html=1;align=center;verticalAlign=middle;whiteSpace=wrap;rounded=0;" vertex="1" parent="1">
          <mxGeometry x="266" y="-900" width="320" height="60" as="geometry" />
        </mxCell>
        <mxCell id="b8dmIowxwLuX0udhrp4a-13" value="" style="verticalLabelPosition=bottom;verticalAlign=top;html=1;shape=mxgraph.basic.patternFillRect;fillStyle=diag;step=5;fillStrokeWidth=0.2;fillStrokeColor=#dddddd;" vertex="1" parent="1">
          <mxGeometry x="70" y="-630" width="120" height="90" as="geometry" />
        </mxCell>
        <mxCell id="b8dmIowxwLuX0udhrp4a-14" value="" style="verticalLabelPosition=bottom;verticalAlign=top;html=1;shape=mxgraph.basic.patternFillRect;fillStyle=diag;step=5;fillStrokeWidth=0.2;fillStrokeColor=#dddddd;" vertex="1" parent="1">
          <mxGeometry x="190" y="-630" width="120" height="90" as="geometry" />
        </mxCell>
        <mxCell id="b8dmIowxwLuX0udhrp4a-15" value="" style="verticalLabelPosition=bottom;verticalAlign=top;html=1;shape=mxgraph.basic.patternFillRect;fillStyle=diag;step=5;fillStrokeWidth=0.2;fillStrokeColor=#dddddd;" vertex="1" parent="1">
          <mxGeometry x="310" y="-630" width="120" height="90" as="geometry" />
        </mxCell>
        <mxCell id="b8dmIowxwLuX0udhrp4a-16" value="Text" style="text;html=1;align=center;verticalAlign=middle;whiteSpace=wrap;rounded=0;" vertex="1" parent="1">
          <mxGeometry x="82" y="-520" width="328" height="30" as="geometry" />
        </mxCell>
        <mxCell id="b8dmIowxwLuX0udhrp4a-17" value="Button" style="labelPosition=center;verticalLabelPosition=middle;align=center;html=1;shape=mxgraph.basic.shaded_button;dx=10;fillColor=#E6E6E6;strokeColor=none;whiteSpace=wrap;" vertex="1" parent="1">
          <mxGeometry x="86" y="-470" width="320" height="60" as="geometry" />
        </mxCell>
        <mxCell id="b8dmIowxwLuX0udhrp4a-19" value="&amp;lt;Form&amp;gt;&lt;br&gt;&lt;b&gt;Subscription Form&lt;/b&gt;" style="html=1;whiteSpace=wrap;" vertex="1" parent="1">
          <mxGeometry x="470" y="-640" width="320" height="290" as="geometry" />
        </mxCell>
        <mxCell id="b8dmIowxwLuX0udhrp4a-20" value="Logo" style="html=1;whiteSpace=wrap;" vertex="1" parent="1">
          <mxGeometry x="59" y="-1090" width="83" height="85" as="geometry" />
        </mxCell>
        <mxCell id="b8dmIowxwLuX0udhrp4a-21" value="" style="rounded=0;whiteSpace=wrap;html=1;" vertex="1" parent="1">
          <mxGeometry x="50" y="-340" width="750" height="60" as="geometry" />
        </mxCell>
        <mxCell id="b8dmIowxwLuX0udhrp4a-23" style="edgeStyle=orthogonalEdgeStyle;rounded=0;orthogonalLoop=1;jettySize=auto;html=1;exitX=0;exitY=0.5;exitDx=0;exitDy=0;" edge="1" parent="1" source="b8dmIowxwLuX0udhrp4a-22" target="b8dmIowxwLuX0udhrp4a-21">
          <mxGeometry relative="1" as="geometry" />
        </mxCell>
        <mxCell id="b8dmIowxwLuX0udhrp4a-22" value="&lt;font style=&quot;font-size: 18px;&quot;&gt;Footer&lt;/font&gt;" style="text;html=1;align=center;verticalAlign=middle;whiteSpace=wrap;rounded=0;" vertex="1" parent="1">
          <mxGeometry x="830" y="-370" width="60" height="30" as="geometry" />
        </mxCell>
      </root>
    </mxGraphModel>
  </diagram>
</mxfile>
